<svg id="icons" xmlns="http://www.w3.org/2000/svg" viewBox="0 0 48 48"><title>easel</title><g id="easel"><path d="M37,47a1,1,0,0,1-1-.72l-13-44A1,1,0,0,1,25,1.72l13,44A1,1,0,0,1,37.28,47,.9.9,0,0,1,37,47Z" fill="#252b33"/><path d="M11,47a.9.9,0,0,1-.28,0A1,1,0,0,1,10,45.72l13-44A1,1,0,0,1,25,2.28l-13,44A1,1,0,0,1,11,47Z" fill="#252b33"/><path d="M24,47a1,1,0,0,1-1-1V2a1,1,0,0,1,2,0V46A1,1,0,0,1,24,47Z" fill="#252b33"/><path d="M34.5,41h-21a1,1,0,0,1,0-2h21a1,1,0,0,1,0,2Z" fill="#252b33"/><path d="M6.13,27H41.87A1.13,1.13,0,0,1,43,28.13v2.62A2.25,2.25,0,0,1,40.75,33H7.25A2.25,2.25,0,0,1,5,30.75V28.13A1.13,1.13,0,0,1,6.13,27Z" fill="#b1bfc9"/><rect x="8" y="6" width="32" height="24" fill="#fff"/><path d="M40,31H8a1,1,0,0,1-1-1V6A1,1,0,0,1,8,5H40a1,1,0,0,1,1,1V30A1,1,0,0,1,40,31ZM9,29H39V7H9Z" fill="#252b33"/><path d="M20,4h8a1,1,0,0,1,1,1V8a0,0,0,0,1,0,0H19a0,0,0,0,1,0,0V5A1,1,0,0,1,20,4Z" fill="#fc3768"/></g></svg>