<?xml version="1.0" encoding="UTF-8" standalone="no"?>
<!DOCTYPE svg PUBLIC "-//W3C//DTD SVG 1.1//EN" "http://www.w3.org/Graphics/SVG/1.1/DTD/svg11.dtd">
<svg version="1.1" xmlns="http://www.w3.org/2000/svg" xmlns:xlink="http://www.w3.org/1999/xlink" preserveAspectRatio="xMidYMid meet" viewBox="0 0 640 640" width="640" height="640"><defs><path d="M420 278.45C420 336.11 375.4 382.93 320.47 382.93C265.54 382.93 220.94 336.11 220.94 278.45C220.94 220.79 265.54 173.97 320.47 173.97C375.4 173.97 420 220.79 420 278.45Z" id="dqV5tetH9"></path><path d="M305.29 288.39L305.3 288.4L298.7 310L257.93 300.57L264.53 278.97L283.29 283.31L300.06 228.39L322.07 233.48L305.29 288.39Z" id="c1ykm9NTRo"></path><path d="M353.23 300.01L353.23 300.01L346.64 321.61L305.87 312.19L312.46 290.58L331.22 294.92L347.99 240L370 245.09L353.23 300.01Z" id="eSO5whBzI"></path></defs><g><g><g><use xlink:href="#dqV5tetH9" opacity="1" fill="#ffffff" fill-opacity="0"></use><g><use xlink:href="#dqV5tetH9" opacity="1" fill-opacity="0" stroke="#ffffff" stroke-width="1" stroke-opacity="1"></use></g></g><g><use xlink:href="#c1ykm9NTRo" opacity="1" fill="#ffffff" fill-opacity="1"></use></g><g><use xlink:href="#eSO5whBzI" opacity="1" fill="#ffffff" fill-opacity="1"></use></g></g></g></svg>