<svg width="326.7650146484375px" height="81.19999999999999px" xmlns="http://www.w3.org/2000/svg" viewBox="86.61749267578125 34.400000000000006 326.7650146484375 81.19999999999999"><defs><filter id="editing-hole" x="-100%" y="-100%" width="300%" height="300%"><feFlood flood-color="#bbcedd" result="black"></feFlood><feMorphology operator="dilate" radius="2" in="SourceGraphic" result="erode"></feMorphology><feGaussianBlur in="erode" stdDeviation="4" result="blur"></feGaussianBlur><feOffset in="blur" dx="2" dy="2" result="offset"></feOffset><feComposite operator="atop" in="offset" in2="black" result="merge"></feComposite><feComposite operator="in" in="merge" in2="SourceGraphic" result="inner-shadow"></feComposite></filter></defs><g filter="url(#editing-hole)"><g transform="translate(139.6643795967102, 89.67000007629395)">
  <path class="logo" fill="transparent" d="M5.15-16.07L5.15-0.17L5.15-0.17Q5.15 2.81 3.70 4.29L3.70 4.29L3.70 4.29Q2.24 5.78-0.79 5.97L-0.79 5.97L-2.28 6.07L-2.48 3.99L-0.99 3.89L-0.99 3.89Q2.48 3.66 2.48 0.20L2.48 0.20L2.48-16.07L5.15-16.07ZM2.21-23.03L5.45-23.03L5.45-20.03L2.21-20.03L2.21-23.03ZM16.80 0.23L16.80 0.23Q14.52 0.23 12.79-0.79L12.79-0.79L12.79-0.79Q11.05-1.82 10.11-3.71L10.11-3.71L10.11-3.71Q9.17-5.61 9.17-8.12L9.17-8.12L9.17-8.12Q9.17-10.63 10.11-12.52L10.11-12.52L10.11-12.52Q11.05-14.42 12.79-15.44L12.79-15.44L12.79-15.44Q14.52-16.47 16.80-16.47L16.80-16.47L16.80-16.47Q19.07-16.47 20.82-15.44L20.82-15.44L20.82-15.44Q22.57-14.42 23.51-12.52L23.51-12.52L23.51-12.52Q24.45-10.63 24.45-8.12L24.45-8.12L24.45-8.12Q24.45-5.61 23.51-3.71L23.51-3.71L23.51-3.71Q22.57-1.82 20.82-0.79L20.82-0.79L20.82-0.79Q19.07 0.23 16.80 0.23L16.80 0.23ZM16.80-1.98L16.80-1.98Q19.17-1.98 20.44-3.55L20.44-3.55L20.44-3.55Q21.71-5.12 21.71-8.12L21.71-8.12L21.71-8.12Q21.71-11.05 20.43-12.66L20.43-12.66L20.43-12.66Q19.14-14.26 16.80-14.26L16.80-14.26L16.80-14.26Q14.45-14.26 13.17-12.66L13.17-12.66L13.17-12.66Q11.88-11.05 11.88-8.12L11.88-8.12L11.88-8.12Q11.88-5.15 13.15-3.56L13.15-3.56L13.15-3.56Q14.42-1.98 16.80-1.98L16.80-1.98ZM33.89 0.23L33.89 0.23Q29.83 0.23 27.46-1.85L27.46-1.85L28.35-3.83L28.35-3.83Q29.63-2.81 30.97-2.36L30.97-2.36L30.97-2.36Q32.31-1.91 33.99-1.91L33.99-1.91L33.99-1.91Q35.77-1.91 36.71-2.52L36.71-2.52L36.71-2.52Q37.65-3.14 37.65-4.29L37.65-4.29L37.65-4.29Q37.65-5.25 37.03-5.81L37.03-5.81L37.03-5.81Q36.40-6.37 34.95-6.70L34.95-6.70L32.24-7.33L32.24-7.33Q30.20-7.79 29.11-8.91L29.11-8.91L29.11-8.91Q28.02-10.03 28.02-11.68L28.02-11.68L28.02-11.68Q28.02-13.83 29.70-15.15L29.70-15.15L29.70-15.15Q31.38-16.47 34.19-16.47L34.19-16.47L34.19-16.47Q35.87-16.47 37.39-15.92L37.39-15.92L37.39-15.92Q38.91-15.38 39.93-14.36L39.93-14.36L39.04-12.41L39.04-12.41Q36.83-14.29 34.19-14.29L34.19-14.29L34.19-14.29Q32.51-14.29 31.56-13.65L31.56-13.65L31.56-13.65Q30.62-13.00 30.62-11.85L30.62-11.85L30.62-11.85Q30.62-10.89 31.20-10.31L31.20-10.31L31.20-10.31Q31.78-9.74 33.07-9.44L33.07-9.44L35.81-8.78L35.81-8.78Q38.05-8.25 39.14-7.18L39.14-7.18L39.14-7.18Q40.23-6.11 40.23-4.39L40.23-4.39L40.23-4.39Q40.23-2.28 38.53-1.02L38.53-1.02L38.53-1.02Q36.83 0.23 33.89 0.23L33.89 0.23ZM57.75-8.61L57.75-7.62L46.00-7.62L46.00-7.62Q46.13-4.82 47.52-3.38L47.52-3.38L47.52-3.38Q48.91-1.95 51.45-1.95L51.45-1.95L51.45-1.95Q54.25-1.95 56.60-3.86L56.60-3.86L57.49-1.91L57.49-1.91Q56.43-0.92 54.78-0.35L54.78-0.35L54.78-0.35Q53.13 0.23 51.41 0.23L51.41 0.23L51.41 0.23Q47.65 0.23 45.49-1.98L45.49-1.98L45.49-1.98Q43.33-4.19 43.33-8.09L43.33-8.09L43.33-8.09Q43.33-10.56 44.29-12.46L44.29-12.46L44.29-12.46Q45.24-14.36 46.98-15.41L46.98-15.41L46.98-15.41Q48.71-16.47 50.92-16.47L50.92-16.47L50.92-16.47Q54.12-16.47 55.94-14.37L55.94-14.37L55.94-14.37Q57.75-12.28 57.75-8.61L57.75-8.61ZM50.95-14.39L50.95-14.39Q48.84-14.39 47.57-13.07L47.57-13.07L47.57-13.07Q46.30-11.75 46.07-9.34L46.07-9.34L55.41-9.34L55.41-9.34Q55.34-11.78 54.19-13.08L54.19-13.08L54.19-13.08Q53.03-14.39 50.95-14.39L50.95-14.39ZM69.76-16.47L69.76-16.47Q71.87-16.47 73.49-15.41L73.49-15.41L73.49-15.41Q75.11-14.36 76.00-12.46L76.00-12.46L76.00-12.46Q76.89-10.56 76.89-8.05L76.89-8.05L76.89-8.05Q76.89-5.54 76.00-3.68L76.00-3.68L76.00-3.68Q75.11-1.82 73.51-0.79L73.51-0.79L73.51-0.79Q71.91 0.23 69.76 0.23L69.76 0.23L69.76 0.23Q67.88 0.23 66.48-0.59L66.48-0.59L66.48-0.59Q65.08-1.42 64.35-2.94L64.35-2.94L64.35 5.94L61.68 5.94L61.68-16.07L64.35-16.07L64.35-13.30L64.35-13.30Q65.08-14.82 66.48-15.64L66.48-15.64L66.48-15.64Q67.88-16.47 69.76-16.47L69.76-16.47ZM69.23-1.98L69.23-1.98Q71.58-1.98 72.86-3.56L72.86-3.56L72.86-3.56Q74.15-5.15 74.15-8.05L74.15-8.05L74.15-8.05Q74.15-10.96 72.86-12.59L72.86-12.59L72.86-12.59Q71.58-14.22 69.23-14.22L69.23-14.22L69.23-14.22Q66.89-14.22 65.62-12.64L65.62-12.64L65.62-12.64Q64.35-11.05 64.35-8.12L64.35-8.12L64.35-8.12Q64.35-5.18 65.62-3.58L65.62-3.58L65.62-3.58Q66.89-1.98 69.23-1.98L69.23-1.98ZM88.97-16.47L88.97-16.47Q94.74-16.47 94.74-10.10L94.74-10.10L94.74 0L92.07 0L92.07-9.93L92.07-9.93Q92.07-12.18 91.20-13.20L91.20-13.20L91.20-13.20Q90.32-14.22 88.41-14.22L88.41-14.22L88.41-14.22Q86.20-14.22 84.88-12.87L84.88-12.87L84.88-12.87Q83.56-11.52 83.56-9.21L83.56-9.21L83.56 0L80.88 0L80.88-23.27L83.56-23.27L83.56-13.50L83.56-13.50Q84.35-14.95 85.75-15.71L85.75-15.71L85.75-15.71Q87.15-16.47 88.97-16.47L88.97-16.47ZM110.81-16.07L110.81-0.17L110.81-0.17Q110.81 2.81 109.36 4.29L109.36 4.29L109.36 4.29Q107.91 5.78 104.87 5.97L104.87 5.97L103.39 6.07L103.19 3.99L104.68 3.89L104.68 3.89Q108.14 3.66 108.14 0.20L108.14 0.20L108.14-16.07L110.81-16.07ZM107.88-23.03L111.11-23.03L111.11-20.03L107.88-20.03L107.88-23.03ZM122.46 0.23L122.46 0.23Q120.19 0.23 118.45-0.79L118.45-0.79L118.45-0.79Q116.72-1.82 115.78-3.71L115.78-3.71L115.78-3.71Q114.84-5.61 114.84-8.12L114.84-8.12L114.84-8.12Q114.84-10.63 115.78-12.52L115.78-12.52L115.78-12.52Q116.72-14.42 118.45-15.44L118.45-15.44L118.45-15.44Q120.19-16.47 122.46-16.47L122.46-16.47L122.46-16.47Q124.74-16.47 126.49-15.44L126.49-15.44L126.49-15.44Q128.24-14.42 129.18-12.52L129.18-12.52L129.18-12.52Q130.12-10.63 130.12-8.12L130.12-8.12L130.12-8.12Q130.12-5.61 129.18-3.71L129.18-3.71L129.18-3.71Q128.24-1.82 126.49-0.79L126.49-0.79L126.49-0.79Q124.74 0.23 122.46 0.23L122.46 0.23ZM122.46-1.98L122.46-1.98Q124.84-1.98 126.11-3.55L126.11-3.55L126.11-3.55Q127.38-5.12 127.38-8.12L127.38-8.12L127.38-8.12Q127.38-11.05 126.09-12.66L126.09-12.66L126.09-12.66Q124.81-14.26 122.46-14.26L122.46-14.26L122.46-14.26Q120.12-14.26 118.83-12.66L118.83-12.66L118.83-12.66Q117.55-11.05 117.55-8.12L117.55-8.12L117.55-8.12Q117.55-5.15 118.82-3.56L118.82-3.56L118.82-3.56Q120.09-1.98 122.46-1.98L122.46-1.98ZM142.20-16.47L142.20-16.47Q147.97-16.47 147.97-10.10L147.97-10.10L147.97 0L145.30 0L145.30-9.93L145.30-9.93Q145.30-12.18 144.42-13.20L144.42-13.20L144.42-13.20Q143.55-14.22 141.64-14.22L141.64-14.22L141.64-14.22Q139.43-14.22 138.11-12.87L138.11-12.87L138.11-12.87Q136.79-11.52 136.79-9.21L136.79-9.21L136.79 0L134.11 0L134.11-23.27L136.79-23.27L136.79-13.50L136.79-13.50Q137.58-14.95 138.98-15.71L138.98-15.71L138.98-15.71Q140.38-16.47 142.20-16.47L142.20-16.47ZM160.94-16.47L160.94-16.47Q166.72-16.47 166.72-10.10L166.72-10.10L166.72 0L164.04 0L164.04-9.93L164.04-9.93Q164.04-12.18 163.17-13.20L163.17-13.20L163.17-13.20Q162.29-14.22 160.38-14.22L160.38-14.22L160.38-14.22Q158.17-14.22 156.85-12.87L156.85-12.87L156.85-12.87Q155.53-11.52 155.53-9.21L155.53-9.21L155.53 0L152.86 0L152.86-16.07L155.50-16.07L155.50-13.43L155.50-13.43Q156.29-14.92 157.71-15.69L157.71-15.69L157.71-15.69Q159.13-16.47 160.94-16.47L160.94-16.47ZM177.05 0.23L177.05 0.23Q172.99 0.23 170.61-1.85L170.61-1.85L171.50-3.83L171.50-3.83Q172.79-2.81 174.12-2.36L174.12-2.36L174.12-2.36Q175.46-1.91 177.14-1.91L177.14-1.91L177.14-1.91Q178.93-1.91 179.87-2.52L179.87-2.52L179.87-2.52Q180.81-3.14 180.81-4.29L180.81-4.29L180.81-4.29Q180.81-5.25 180.18-5.81L180.18-5.81L180.18-5.81Q179.55-6.37 178.10-6.70L178.10-6.70L175.40-7.33L175.40-7.33Q173.35-7.79 172.26-8.91L172.26-8.91L172.26-8.91Q171.17-10.03 171.17-11.68L171.17-11.68L171.17-11.68Q171.17-13.83 172.85-15.15L172.85-15.15L172.85-15.15Q174.54-16.47 177.34-16.47L177.34-16.47L177.34-16.47Q179.03-16.47 180.54-15.92L180.54-15.92L180.54-15.92Q182.06-15.38 183.08-14.36L183.08-14.36L182.19-12.41L182.19-12.41Q179.98-14.29 177.34-14.29L177.34-14.29L177.34-14.29Q175.66-14.29 174.72-13.65L174.72-13.65L174.72-13.65Q173.78-13.00 173.78-11.85L173.78-11.85L173.78-11.85Q173.78-10.89 174.36-10.31L174.36-10.31L174.36-10.31Q174.93-9.74 176.22-9.44L176.22-9.44L178.96-8.78L178.96-8.78Q181.20-8.25 182.29-7.18L182.29-7.18L182.29-7.18Q183.38-6.11 183.38-4.39L183.38-4.39L183.38-4.39Q183.38-2.28 181.68-1.02L181.68-1.02L181.68-1.02Q179.98 0.23 177.05 0.23L177.05 0.23ZM194.11 0.23L194.11 0.23Q191.83 0.23 190.10-0.79L190.10-0.79L190.10-0.79Q188.36-1.82 187.42-3.71L187.42-3.71L187.42-3.71Q186.48-5.61 186.48-8.12L186.48-8.12L186.48-8.12Q186.48-10.63 187.42-12.52L187.42-12.52L187.42-12.52Q188.36-14.42 190.10-15.44L190.10-15.44L190.10-15.44Q191.83-16.47 194.11-16.47L194.11-16.47L194.11-16.47Q196.38-16.47 198.13-15.44L198.13-15.44L198.13-15.44Q199.88-14.42 200.82-12.52L200.82-12.52L200.82-12.52Q201.76-10.63 201.76-8.12L201.76-8.12L201.76-8.12Q201.76-5.61 200.82-3.71L200.82-3.71L200.82-3.71Q199.88-1.82 198.13-0.79L198.13-0.79L198.13-0.79Q196.38 0.23 194.11 0.23L194.11 0.23ZM194.11-1.98L194.11-1.98Q196.48-1.98 197.75-3.55L197.75-3.55L197.75-3.55Q199.02-5.12 199.02-8.12L199.02-8.12L199.02-8.12Q199.02-11.05 197.74-12.66L197.74-12.66L197.74-12.66Q196.45-14.26 194.11-14.26L194.11-14.26L194.11-14.26Q191.76-14.26 190.48-12.66L190.48-12.66L190.48-12.66Q189.19-11.05 189.19-8.12L189.19-8.12L189.19-8.12Q189.19-5.15 190.46-3.56L190.46-3.56L190.46-3.56Q191.73-1.98 194.11-1.98L194.11-1.98ZM213.84-16.47L213.84-16.47Q219.62-16.47 219.62-10.10L219.62-10.10L219.62 0L216.94 0L216.94-9.93L216.94-9.93Q216.94-12.18 216.07-13.20L216.07-13.20L216.07-13.20Q215.19-14.22 213.28-14.22L213.28-14.22L213.28-14.22Q211.07-14.22 209.75-12.87L209.75-12.87L209.75-12.87Q208.43-11.52 208.43-9.21L208.43-9.21L208.43 0L205.76 0L205.76-16.07L208.40-16.07L208.40-13.43L208.40-13.43Q209.19-14.92 210.61-15.69L210.61-15.69L210.61-15.69Q212.03-16.47 213.84-16.47L213.84-16.47Z" fill="#ffffff"></path></g></g><style>text {
  font-size: 64px;
  font-family: Arial Black;
  dominant-baseline: central;
  text-anchor: middle;
}</style></svg>
